# xmcd CD database file
#
# Track frame offsets:
#	150
#	20050
#	33337
#	50700
#	65700
#	76925
#	93272
#	119250
#	133930
#	151300
#	170775
#	188250
#
# Disc length: 2751 seconds
#
# Revision: 4
# Processed by: cddbd v1.5.2PL0 Copyright (c) Steve Scherf et al.
# Submitted via: CDex 1.70beta2
#
DISCID=9f0abd0c
DTITLE=Takashi Hirayasu And Bob Brozman - Jin Jin Firefly
DYEAR=2000
DGENRE=Jazz
TTITLE0=Akata Sun Dunchi
TTITLE1=Uruku Tumi Gushiku (Mimura Bushi)
TTITLE2=Ufumura Udun (Mimichri Boji)
TTITLE3=Bebe Nu Kusakaiga
TTITLE4=Hana Nu Kajimaya
TTITLE5=Jin Jin
TTITLE6=Tinsagu Nu Hana
TTITLE7=Tsuki Nu Kaisha
TTITLE8=Umaku Kamade
TTITLE9=Chinnuku Jushi (Rice Gruel with Taro)
TTITLE10=Chon Chon Kijimuna
TTITLE11=Taketomi Sunset
EXTD=YEAR: 2000
EXTT0=
EXTT1=
EXTT2=
EXTT3=
EXTT4=
EXTT5=
EXTT6=
EXTT7=
EXTT8=
EXTT9=
EXTT10=
EXTT11=
PLAYORDER=
